# xmcd CD database file
# Copyright 1993-1996 (C) Ti Kan
#
# Track frame offsets:
#    195
#    13982
#    27092
#    42325
#    54210
#    71817
#    96520
#    118290
#    131920
#    154340
#    171842
#    193495
#
# Disc length: 2753 seconds
#
# Revision: 0
# Processed by: cddbd v1.4b41PL1 Copyright (c) Steve Scherf et al.
# Submitted via: MyCDplayer 2.3.9a  (wjohn@fix.net)
#
DISCID=b70abf0c
DTITLE=Various Blues - 
DTITLE=American Folk Blues Fest, '63
DYEAR=1900
DGENRE=
TTITLE0=Wish Me Well--Peter Chatman
TTITLE1=I Have No Friends--Big Joe Williams
TTITLE2=Sittin' And Cryin' The Blues--Willy Dixon
TTITLE3=Crazy For My Baby--Willy Dixon
TTITLE4=Grant Spivey--Victoria Spivey
TTITLE5=Matt's Guitar Boogie--Matt "Guitar" Murphy
TTITLE6=I Don't Know--Rice Miller Williamson
TTITLE7=Sonny Boy's Harmonica Blues--R.M. Williamson
TTITLE8=It's Too Late To Cry--Lonnie Johnson
TTITLE9=Had My Fun--Otis Spann
TTITLE10=Five Long Years--E. Boyd-Moragnfield
TTITLE11=Bye Bye Blues--Peter Chatman
EXTD=
EXTT0=
EXTT1=
EXTT2=
EXTT3=
EXTT4=
EXTT5=
EXTT6=
EXTT7=
EXTT8=
EXTT9=
EXTT10=
EXTT11=
PLAYORDER=
